<svg id="Camada_1" data-name="Camada 1" xmlns="http://www.w3.org/2000/svg" viewBox="0 0 361.53 233.04"><defs><style>.cls-1{fill:#027;}.cls-2{fill:#fee000;}.cls-3{fill:#009c37;}.cls-4,.cls-5{fill:#fff;}.cls-5{font-size:46.05px;font-family:AgencyFB-Bold, Agency FB;font-weight:700;}</style></defs><path class="cls-1" d="M172.58,89.54l-55.92,71S141,164.09,157.85,152,176.25,98.05,172.58,89.54Z"/><path class="cls-2" d="M172.58,49.49,93.9,150.17s5.4,5.36,8,6.43,14.72,3.92,14.72,3.92l55.92-71Z"/><polygon class="cls-3" points="172.58 3.48 72.41 130.73 90.53 154.47 172.58 49.49 172.58 3.48"/><path class="cls-4" d="M76,3.48V103.84c0,44,24.85,55.39,48.28,55.39,27.7,0,48.29-11.6,48.29-55.39V3.48h13v99.65c0,51.84-27.46,67.94-61.78,67.94-32.67,0-61.07-17.75-61.07-65.81V3.48Z"/><path class="cls-4" d="M237.36,161c-27.91,0-45.15-16.4-53.64-37.52,0,2.61-2.93,12.93-5.74,18.69C190.2,161,210,173,236.89,173c35.41,0,55-20.1,62.93-46.66H286.9C278.52,146.9,264.64,161,237.36,161Z"/><path class="cls-4" d="M235.32,12c-27.92,0-45.16,16.4-53.64,37.53,0-2.62-2.94-12.94-5.74-18.7C188.15,12,207.94,0,234.84,0c35.42,0,55,20.1,62.94,46.66H284.85C276.48,26.08,262.6,12,235.32,12Z"/><text class="cls-5" transform="translate(5.36 224.12) scale(1.11 1)">União Conservadora</text></svg>