<svg id="Camada_1" data-name="Camada 1" xmlns="http://www.w3.org/2000/svg" viewBox="0 0 347.47 224.12"><defs><style>.cls-1{fill:#027;}.cls-2{fill:#fee000;}.cls-3{fill:#009c37;}.cls-4{font-size:46.05px;font-family:AgencyFB-Bold, Agency FB;font-weight:700;}</style></defs><path class="cls-1" d="M164.88,89.54l-55.92,71s24.34,3.57,41.19-8.51S168.55,98.05,164.88,89.54Z"/><path class="cls-2" d="M164.88,49.49,86.2,150.17s5.4,5.36,8,6.43S109,160.52,109,160.52l55.92-71Z"/><polygon class="cls-3" points="164.88 3.48 64.7 130.73 82.83 154.47 164.88 49.49 164.88 3.48"/><path d="M68.3,3.48V103.84c0,44,24.86,55.39,48.29,55.39,27.7,0,48.29-11.6,48.29-55.39V3.48h13v99.65c0,51.84-27.46,67.94-61.78,67.94-32.67,0-61.07-17.75-61.07-65.81V3.48Z"/><path d="M229.66,161c-27.91,0-45.15-16.4-53.64-37.52,0,2.61-2.93,12.93-5.74,18.69C182.5,161,202.28,173,229.19,173c35.41,0,55-20.1,62.93-46.66H279.2C270.82,146.9,256.94,161,229.66,161Z"/><path d="M227.62,12C199.7,12,182.46,28.36,174,49.49c0-2.62-2.94-12.94-5.74-18.7C180.45,12,200.24,0,227.14,0c35.42,0,55,20.1,62.94,46.66H277.15C268.78,26.08,254.9,12,227.62,12Z"/><text class="cls-4" transform="translate(-2.34 224.12) scale(1.11 1)">União Conservadora</text></svg>